<?xml version="1.0" standalone="no"?>
<!DOCTYPE svg PUBLIC "-//W3C//DTD SVG 20010904//EN"
 "http://www.w3.org/TR/2001/REC-SVG-20010904/DTD/svg10.dtd">
<svg version="1.0" xmlns="http://www.w3.org/2000/svg"
 width="2048.000000pt" height="2048.000000pt" viewBox="0 0 2048.000000 2048.000000"
 preserveAspectRatio="xMidYMid meet">
<metadata>
Created by potrace 1.11, written by Peter Selinger 2001-2013
</metadata>
<g transform="translate(0.000000,2048.000000) scale(0.100000,-0.100000)"
fill="#000000" stroke="none">
<path d="M0 10240 l0 -10240 10240 0 10240 0 0 10240 0 10240 -10240 0 -10240
0 0 -10240z m10677 9810 c267 -12 506 -32 727 -61 88 -11 88 -12 186 -85 279
-210 485 -425 568 -593 45 -90 47 -98 47 -180 -1 -105 -24 -160 -100 -236
-125 -124 -243 -181 -750 -360 -543 -193 -629 -243 -802 -472 -118 -155 -169
-240 -239 -396 -92 -203 -130 -396 -121 -604 7 -151 30 -252 87 -371 116 -242
292 -407 599 -561 55 -28 101 -54 101 -57 0 -3 -38 -47 -85 -97 -477 -511
-640 -1275 -415 -1947 366 -1094 1586 -1641 2645 -1186 561 241 980 733 1130
1326 42 165 57 292 57 480 0 347 -80 663 -242 954 -33 60 -59 110 -58 111 2 1
47 23 101 49 129 60 195 105 290 195 188 179 269 358 324 711 31 205 19 725
-23 930 -5 26 -4 26 93 38 54 7 119 19 144 26 99 30 221 105 325 200 l62 56
41 -55 c24 -31 59 -64 82 -76 39 -19 51 -20 223 -14 271 10 475 -10 741 -75
732 -177 1537 -701 2235 -1455 66 -71 120 -133 120 -137 0 -17 -288 -112 -520
-172 -430 -111 -846 -134 -1184 -65 -142 28 -286 79 -428 149 -76 37 -134 60
-155 60 -74 0 -132 -45 -154 -121 -10 -32 -7 -55 21 -170 26 -103 31 -136 22
-150 -9 -13 -9 -61 -1 -181 6 -90 11 -325 12 -523 1 -314 -2 -383 -22 -544
-65 -545 -204 -1042 -431 -1546 -82 -183 -296 -580 -395 -735 -27 -41 -69
-106 -93 -145 -124 -193 -441 -616 -544 -727 -13 -14 -137 -153 -193 -217
-211 -240 -611 -623 -910 -871 -49 -41 -92 -77 -95 -80 -11 -12 -319 -250
-375 -289 -33 -23 -89 -64 -125 -91 -36 -27 -71 -49 -78 -49 -7 -1 -17 11 -23
26 -26 70 -136 274 -193 361 -191 290 -465 562 -771 766 -907 604 -2148 724
-3200 309 -857 -338 -1477 -994 -1665 -1763 -27 -110 -29 -117 -38 -104 -4 6
-50 37 -102 68 -225 135 -440 278 -665 441 -137 99 -359 268 -381 289 -6 6
-26 22 -44 36 -78 59 -324 270 -475 409 -135 125 -543 540 -619 630 -39 47
-78 92 -86 101 -119 125 -367 445 -526 678 -96 141 -190 293 -206 335 -34 89
-95 296 -132 447 -115 474 -147 905 -111 1515 15 261 17 284 41 505 37 350
114 774 194 1073 48 179 39 237 -43 291 -65 41 -100 36 -251 -38 -182 -90
-306 -129 -511 -162 -136 -22 -480 -25 -635 -6 -152 19 -426 76 -567 116 -124
37 -401 131 -411 140 -13 13 397 429 590 598 651 574 1326 931 1973 1043 161
28 331 38 532 31 214 -8 220 -7 282 58 19 20 37 32 40 28 13 -20 159 -126 205
-149 73 -37 117 -51 218 -68 116 -20 346 -21 454 -1 436 79 743 379 831 811
11 53 17 132 17 235 1 144 -1 160 -27 235 -32 91 -72 167 -128 241 l-38 52 40
27 c58 38 464 235 594 288 644 262 1318 420 2103 492 362 34 872 43 1289 25z
m1825 -3760 c216 -21 377 -68 583 -170 481 -239 812 -697 891 -1233 24 -161
15 -430 -19 -582 -154 -683 -707 -1195 -1387 -1284 -152 -20 -208 -22 -340
-11 -417 34 -770 198 -1057 491 -162 166 -275 338 -356 544 -264 668 -63 1436
493 1884 341 275 764 403 1192 361z m-8825 -1062 c-43 -236 -76 -500 -103
-823 -22 -259 -25 -975 -6 -1145 70 -613 208 -1104 477 -1695 43 -93 79 -182
81 -197 2 -15 25 -93 52 -175 124 -374 297 -753 527 -1148 87 -151 395 -611
425 -635 5 -4 68 -87 157 -205 5 -6 31 -37 59 -70 28 -33 59 -71 70 -83 37
-46 56 -68 132 -152 144 -159 216 -235 392 -410 173 -173 227 -224 368 -349
40 -35 87 -77 105 -93 17 -16 60 -51 93 -79 l62 -51 -28 -76 c-15 -43 -33
-107 -40 -143 -39 -201 89 -380 423 -589 120 -75 321 -181 817 -432 223 -113
450 -231 505 -263 362 -210 621 -400 835 -615 267 -266 410 -502 530 -870 91
-280 182 -446 329 -602 139 -148 302 -242 521 -300 96 -25 361 -36 482 -19
348 49 678 211 919 451 200 199 286 368 296 586 7 131 -10 230 -64 373 -76
204 -202 378 -470 652 -106 108 -193 199 -193 203 0 3 7 6 14 6 50 0 493 162
816 299 297 126 1105 567 1095 598 -2 7 2 10 9 7 15 -6 516 330 631 423 6 5
48 37 94 73 93 72 303 241 311 249 3 3 32 28 65 56 228 189 650 599 861 837
208 234 239 270 248 287 5 9 12 18 15 21 4 3 22 25 41 50 19 25 37 47 40 50
11 9 185 243 264 353 202 286 455 726 586 1022 12 28 30 68 41 90 40 86 124
308 176 465 120 365 195 722 227 1076 28 301 15 974 -24 1288 -5 45 -15 235
-20 422 -15 517 -48 874 -121 1286 -11 65 -19 123 -17 128 8 25 446 -542 580
-752 18 -27 17 -27 -45 -120 -117 -175 -215 -401 -272 -627 -50 -200 -59 -274
-59 -511 -1 -389 37 -482 242 -588 196 -101 509 -170 1102 -241 l55 -6 33
-100 c24 -70 36 -125 39 -185 5 -85 -18 -498 -38 -685 -18 -165 -59 -487 -69
-535 -5 -25 -16 -85 -25 -135 -9 -49 -25 -135 -36 -190 -11 -55 -21 -111 -24
-125 -19 -98 -122 -497 -171 -660 -47 -155 -125 -384 -191 -559 -43 -114 -51
-146 -41 -154 10 -7 9 -8 -3 -4 -10 3 -19 -5 -27 -23 -20 -45 -211 -164 -355
-221 -237 -95 -461 -115 -994 -87 -495 25 -820 -40 -1090 -219 -315 -208 -410
-547 -297 -1063 50 -228 117 -435 317 -975 114 -308 190 -531 202 -592 5 -23
2 -36 -12 -50 -49 -49 -401 -348 -487 -413 -125 -95 -312 -234 -371 -275 -203
-142 -454 -304 -582 -376 -29 -16 -57 -32 -158 -91 -151 -88 -685 -358 -708
-358 -3 0 -39 -16 -80 -35 -41 -19 -77 -35 -81 -35 -3 0 -31 -12 -63 -26 -106
-47 -117 -52 -243 -99 -845 -320 -1731 -507 -2630 -555 -241 -13 -724 -13
-965 0 -653 36 -1349 155 -1962 334 -137 40 -515 165 -613 203 -96 37 -262
103 -285 113 -11 5 -103 45 -205 90 -289 127 -812 401 -1000 524 -19 13 -78
50 -130 82 -669 416 -1404 1049 -1930 1664 -30 35 -62 71 -70 80 -8 8 -31 36
-50 60 -19 25 -40 51 -48 58 -7 8 -25 30 -40 50 -15 21 -29 39 -32 42 -3 3
-21 25 -40 50 -19 25 -43 54 -53 65 -10 11 -28 36 -40 55 -11 19 -24 37 -27
40 -10 9 -143 189 -197 269 -168 247 -508 808 -497 820 9 10 230 -195 594
-553 538 -530 789 -732 1068 -863 134 -63 241 -86 372 -81 93 4 113 8 173 37
126 60 221 178 279 346 46 134 61 240 62 425 1 274 -46 509 -145 717 -50 105
-77 145 -142 211 -67 69 -95 85 -197 117 -125 39 -204 87 -296 179 -294 293
-462 866 -509 1736 -21 375 -128 677 -344 965 -180 240 -483 487 -803 655 -65
34 -118 65 -118 68 0 14 90 298 136 425 281 797 671 1538 1165 2214 116 158
382 493 388 487 2 -2 -8 -68 -22 -146z m12860 -500 c-3 -8 -6 -5 -6 6 -1 11 2
17 5 13 3 -3 4 -12 1 -19z m40 -480 c-3 -7 -5 -2 -5 12 0 14 2 19 5 13 2 -7 2
-19 0 -25z m340 -1030 c-3 -8 -6 -5 -6 6 -1 11 2 17 5 13 3 -3 4 -12 1 -19z
m-380 -230 c-3 -8 -6 -5 -6 6 -1 11 2 17 5 13 3 -3 4 -12 1 -19z m-12163
-1334 c3 -8 2 -12 -4 -9 -6 3 -10 10 -10 16 0 14 7 11 14 -7z m164 -319 c-3
-3 -9 2 -12 12 -6 14 -5 15 5 6 7 -7 10 -15 7 -18z m-310 -150 c-3 -3 -9 2
-12 12 -6 14 -5 15 5 6 7 -7 10 -15 7 -18z m471 -119 c-3 -3 -11 5 -18 17 -13
21 -12 21 5 5 10 -10 16 -20 13 -22z m29 -51 c-3 -3 -9 2 -12 12 -6 14 -5 15
5 6 7 -7 10 -15 7 -18z m5870 -11 c988 -112 1811 -640 2169 -1391 82 -173 88
-153 -74 -254 -311 -193 -782 -445 -1048 -558 -722 -310 -1281 -451 -1785
-451 -440 0 -903 105 -1515 345 -162 64 -312 132 -568 258 l-228 112 6 50 c4
28 20 104 36 169 131 527 529 1018 1082 1336 358 205 757 333 1202 385 161 18
557 18 723 -1z m-5817 -61 c13 -16 12 -17 -3 -4 -10 7 -18 15 -18 17 0 8 8 3
21 -13z m10920 -26 c-10 -9 -11 -8 -5 6 3 10 9 15 12 12 3 -3 0 -11 -7 -18z
m-10857 -73 c3 -8 2 -12 -4 -9 -6 3 -10 10 -10 16 0 14 7 11 14 -7z m11217
-11 c-12 -20 -14 -14 -5 12 4 9 9 14 11 11 3 -2 0 -13 -6 -23z m-11563 -98
c-3 -3 -9 2 -12 12 -6 14 -5 15 5 6 7 -7 10 -15 7 -18z m11493 -8 c-10 -9 -11
-8 -5 6 3 10 9 15 12 12 3 -3 0 -11 -7 -18z m-50 -80 c-10 -9 -11 -8 -5 6 3
10 9 15 12 12 3 -3 0 -11 -7 -18z m2826 -24 c-3 -10 -5 -2 -5 17 0 19 2 27 5
18 2 -10 2 -26 0 -35z m-13743 -29 c5 -14 4 -15 -9 -4 -17 14 -19 20 -6 20 5
0 12 -7 15 -16z m10342 -152 c-17 -16 -18 -16 -5 5 7 12 15 20 18 17 3 -2 -3
-12 -13 -22z m425 -5 c-10 -9 -11 -8 -5 6 3 10 9 15 12 12 3 -3 0 -11 -7 -18z
m-463 -47 c-7 -11 -17 -20 -22 -20 -5 0 -1 9 9 20 10 11 20 20 22 20 2 0 -2
-9 -9 -20z m-10083 -80 c10 -11 14 -20 9 -20 -5 0 -15 9 -22 20 -7 11 -11 20
-9 20 2 0 12 -9 22 -20z m9993 -30 c-7 -10 -14 -17 -17 -15 -4 4 18 35 25 35
2 0 -1 -9 -8 -20z m362 -99 c-5 -11 -15 -23 -21 -27 -6 -3 -3 5 6 20 20 30 30
35 15 7z m-10625 -87 c9 -15 12 -23 6 -20 -11 7 -35 46 -28 46 3 0 12 -12 22
-26z m10075 -34 c-6 -11 -13 -20 -16 -20 -2 0 0 9 6 20 6 11 13 20 16 20 2 0
0 -9 -6 -20z m-10036 -16 c3 -8 2 -12 -4 -9 -6 3 -10 10 -10 16 0 14 7 11 14
-7z m9906 -127 c0 -2 -10 -12 -22 -23 l-23 -19 19 23 c18 21 26 27 26 19z
m-9162 -177 c7 -11 11 -20 9 -20 -2 0 -12 9 -22 20 -10 11 -14 20 -9 20 5 0
15 -9 22 -20z m147 -150 c10 -11 16 -20 13 -20 -3 0 -13 9 -23 20 -10 11 -16
20 -13 20 3 0 13 -9 23 -20z m90 -80 c3 -6 -1 -7 -9 -4 -18 7 -21 14 -7 14 6
0 13 -4 16 -10z m8965 -54 c0 -2 -8 -10 -17 -17 -16 -13 -17 -12 -4 4 13 16
21 21 21 13z m-8799 -103 c13 -16 12 -17 -3 -4 -10 7 -18 15 -18 17 0 8 8 3
21 -13z m-471 -29 c0 -2 -9 0 -20 6 -11 6 -20 13 -20 16 0 2 9 0 20 -6 11 -6
20 -13 20 -16z m9105 -33 c-3 -6 -11 -11 -16 -11 -5 0 -4 6 3 14 14 16 24 13
13 -3z m-531 -20 c-10 -10 -21 -16 -24 -14 -3 3 4 11 14 19 28 20 33 17 10 -5z
m386 -115 c0 -2 -8 -10 -17 -17 -16 -13 -17 -12 -4 4 13 16 21 21 21 13z
m-8185 -66 c10 -11 16 -20 13 -20 -3 0 -13 9 -23 20 -10 11 -16 20 -13 20 3 0
13 -9 23 -20z m-520 -8 c-3 -3 -11 0 -18 7 -9 10 -8 11 6 5 10 -3 15 -9 12
-12z m30 -22 c3 -6 -1 -7 -9 -4 -18 7 -21 14 -7 14 6 0 13 -4 16 -10z m46 -47
c13 -16 12 -17 -3 -4 -10 7 -18 15 -18 17 0 8 8 3 21 -13z m774 -183 c3 -6 -1
-7 -9 -4 -18 7 -21 14 -7 14 6 0 13 -4 16 -10z m6880 -40 c-3 -5 -12 -10 -18
-10 -7 0 -6 4 3 10 19 12 23 12 15 0z m535 -14 c0 -2 -8 -10 -17 -17 -16 -13
-17 -12 -4 4 13 16 21 21 21 13z m-7190 -112 c0 -2 -9 0 -20 6 -11 6 -20 13
-20 16 0 2 9 0 20 -6 11 -6 20 -13 20 -16z m204 -140 c5 -14 4 -15 -9 -4 -17
14 -19 20 -6 20 5 0 12 -7 15 -16z m6666 2 c0 -2 -8 -10 -17 -17 -16 -13 -17
-12 -4 4 13 16 21 21 21 13z m-12020 -487 c0 -6 -4 -7 -10 -4 -5 3 -10 11 -10
16 0 6 5 7 10 4 6 -3 10 -11 10 -16z m10886 -254 c-11 -8 -25 -15 -30 -15 -6
1 0 7 14 15 32 19 40 18 16 0z m-396 -205 c0 -5 -5 -10 -11 -10 -5 0 -7 5 -4
10 3 6 8 10 11 10 2 0 4 -4 4 -10z m-10333 -192 c-3 -8 -6 -5 -6 6 -1 11 2 17
5 13 3 -3 4 -12 1 -19z m651 -1583 c-3 -3 -9 2 -12 12 -6 14 -5 15 5 6 7 -7
10 -15 7 -18z m1307 -1825 c10 -11 16 -20 13 -20 -3 0 -13 9 -23 20 -10 11
-16 20 -13 20 3 0 13 -9 23 -20z m225 -230 c0 -5 -2 -10 -4 -10 -3 0 -8 5 -11
10 -3 6 -1 10 4 10 6 0 11 -4 11 -10z m2773 -17 c-13 -2 -35 -2 -50 0 -16 2
-5 4 22 4 28 0 40 -2 28 -4z m295 0 c-10 -2 -26 -2 -35 0 -10 3 -2 5 17 5 19
0 27 -2 18 -5z m6115 0 c-7 -2 -19 -2 -25 0 -7 3 -2 5 12 5 14 0 19 -2 13 -5z
m-6606 -9 c-3 -3 -12 -4 -19 -1 -8 3 -5 6 6 6 11 1 17 -2 13 -5z m-74 -11 c-7
-2 -19 -2 -25 0 -7 3 -2 5 12 5 14 0 19 -2 13 -5z m6394 1 c-3 -3 -12 -4 -19
-1 -8 3 -5 6 6 6 11 1 17 -2 13 -5z m-8789 -74 c17 -27 10 -25 -19 6 -13 14
-17 23 -9 19 9 -3 21 -14 28 -25z m9839 24 c-3 -3 -12 -4 -19 -1 -8 3 -5 6 6
6 11 1 17 -2 13 -5z m-9596 -251 c13 -16 12 -17 -3 -4 -17 13 -22 21 -14 21 2
0 10 -8 17 -17z m3849 -3 c0 -5 -2 -10 -4 -10 -3 0 -8 5 -11 10 -3 6 -1 10 4
10 6 0 11 -4 11 -10z m7465 -10 c16 -17 16 -20 3 -15 -9 4 -19 13 -22 21 -7
19 -2 18 19 -6z m-10145 -10 c-8 -5 -19 -10 -25 -10 -5 0 -3 5 5 10 8 5 20 10
25 10 6 0 3 -5 -5 -10z m2831 -67 c13 -17 13 -17 -6 -3 -11 8 -22 16 -24 17
-2 2 0 3 6 3 6 0 17 -8 24 -17z m-3861 -28 c19 -19 32 -35 29 -35 -3 0 -20 16
-39 35 -19 19 -32 35 -29 35 3 0 20 -16 39 -35z m7300 11 c0 -2 -7 -7 -16 -10
-8 -3 -12 -2 -9 4 6 10 25 14 25 6z m-3315 -61 l20 -16 -20 10 c-11 5 -29 17
-40 26 l-20 16 20 -10 c11 -5 29 -17 40 -26z m-3760 -135 c3 -6 -1 -7 -9 -4
-18 7 -21 14 -7 14 6 0 13 -4 16 -10z m390 0 c-3 -5 -12 -10 -18 -10 -7 0 -6
4 3 10 19 12 23 12 15 0z m3566 -17 c13 -16 12 -17 -3 -4 -10 7 -18 15 -18 17
0 8 8 3 21 -13z m6659 3 c0 -2 -8 -10 -17 -17 -16 -13 -17 -12 -4 4 13 16 21
21 21 13z m-10300 -51 c0 -2 -10 -9 -22 -15 -22 -11 -22 -10 -4 4 21 17 26 19
26 11z m10240 0 c0 -2 -10 -9 -22 -15 -22 -11 -22 -10 -4 4 21 17 26 19 26 11z
m-6439 -92 c13 -16 12 -17 -3 -4 -10 7 -18 15 -18 17 0 8 8 3 21 -13z m80 -80
c13 -16 12 -17 -3 -4 -10 7 -18 15 -18 17 0 8 8 3 21 -13z m2130 -266 c-10 -9
-11 -8 -5 6 3 10 9 15 12 12 3 -3 0 -11 -7 -18z m-1727 -283 c3 -8 2 -12 -4
-9 -6 3 -10 10 -10 16 0 14 7 11 14 -7z m293 -786 c-3 -8 -6 -5 -6 6 -1 11 2
17 5 13 3 -3 4 -12 1 -19z m806 -275 c-13 -2 -33 -2 -45 0 -13 2 -3 4 22 4 25
0 35 -2 23 -4z"/>
<path d="M7970 16614 c-14 -2 -63 -9 -110 -15 -551 -71 -1080 -414 -1383 -897
-415 -661 -404 -1504 29 -2144 279 -413 673 -692 1148 -813 182 -46 293 -59
496 -59 311 1 556 56 835 188 810 384 1257 1268 1089 2151 -69 361 -253 716
-508 983 -321 335 -719 536 -1180 597 -103 13 -347 19 -416 9z m475 -344 c509
-99 936 -421 1165 -878 108 -217 157 -405 175 -667 7 -101 -7 -289 -31 -404
-41 -202 -152 -456 -272 -625 -75 -105 -238 -274 -332 -345 -278 -209 -551
-313 -896 -341 -333 -27 -693 62 -984 243 -349 218 -616 578 -720 972 -49 187
-67 477 -40 655 113 751 710 1330 1455 1410 122 13 357 3 480 -20z"/>
<path d="M8520 14930 c-237 -32 -428 -189 -501 -411 -32 -97 -34 -274 -5 -359
37 -108 77 -173 155 -251 118 -118 262 -179 421 -179 263 1 490 164 576 415
53 155 29 364 -56 499 -45 70 -126 154 -194 198 -106 69 -269 105 -396 88z"/>
<path d="M11869 14930 c-195 -25 -371 -150 -459 -324 -121 -241 -79 -506 110
-697 155 -157 372 -216 580 -158 113 31 186 74 271 160 219 218 238 547 47
797 -120 157 -348 249 -549 222z"/>
<path d="M9086 10015 c-162 -67 -250 -217 -250 -430 0 -55 6 -125 13 -155 73
-313 300 -563 568 -626 191 -45 373 49 448 233 24 59 29 85 33 193 3 95 0 141
-12 190 -76 299 -291 540 -541 606 -82 22 -190 18 -259 -11z"/>
<path d="M11160 10026 c-301 -87 -550 -435 -550 -771 0 -263 140 -441 364
-462 171 -16 391 105 528 290 253 342 229 784 -50 924 -49 24 -70 28 -152 30
-55 1 -114 -3 -140 -11z"/>
</g>
</svg>
